<svg id="Layer_1" data-name="Layer 1" xmlns="http://www.w3.org/2000/svg" viewBox="0 0 600 100"><title>blog-logo</title><path d="M62.78,91.66H14.71c-7.21,0-11.18-4-11.18-11.18V64.89H30.06V79.17a5.6,5.6,0,0,0,.19,1.76,5.49,5.49,0,0,0,1.75.19H45.48a6,6,0,0,0,1.78-.18,6.57,6.57,0,0,0,.17-1.77V59.72A5.44,5.44,0,0,0,47.24,58a5.89,5.89,0,0,0-1.76-.18H14.35c-7.21,0-11.18-4-11.18-11.18V25.13c0-7.21,4-11.18,11.18-11.18H62.43c7.2,0,11.17,4,11.17,11.18V40.72H47.08V26.44a5.22,5.22,0,0,0-.2-1.77,6.07,6.07,0,0,0-1.75-.18H31.65a6.67,6.67,0,0,0-1.78.17,6.67,6.67,0,0,0-.17,1.78V45.29a6.5,6.5,0,0,0,.17,1.77,6,6,0,0,0,1.78.18H62.78C70,47.24,74,51.21,74,58.41V80.48C74,87.69,70,91.66,62.78,91.66ZM7,68.39V80.48c0,5.31,2.37,7.68,7.68,7.68H62.78c5.31,0,7.68-2.37,7.68-7.68V58.41c0-5.31-2.37-7.67-7.68-7.67H31.65c-2.16,0-3.48-.36-4.29-1.18s-1.16-2.11-1.16-4.27V26.44c0-2.15.36-3.47,1.17-4.28S29.5,21,31.65,21H45.13c2,0,3.33.36,4.16,1.12s1.29,2.15,1.29,4.33V37.22H70.1V25.13c0-5.31-2.37-7.68-7.67-7.68H14.35c-5.31,0-7.68,2.37-7.68,7.68V46.6c0,5.31,2.37,7.68,7.68,7.68H45.48c2.19,0,3.52.39,4.33,1.27s1.12,2.16,1.12,4.17V79.17c0,2.15-.36,3.47-1.17,4.28s-2.12,1.17-4.28,1.17H32c-2,0-3.33-.36-4.16-1.12s-1.28-2.14-1.28-4.33V68.39ZM47.21,81.07ZM30.28,81Zm17.1-.11ZM29.92,47.19ZM29.75,47Zm0-22.31Zm.17-.17Z"/><path d="M112.85,91.66H86.32V14h61.76c7.21,0,11.17,4,11.17,11.18V56.26c0,7.21-4,11.18-11.17,11.18H112.85Zm-23-3.5h19.53V63.94h38.73c5.31,0,7.67-2.37,7.67-7.68V25.13c0-5.31-2.36-7.68-7.67-7.68H89.82Zm41-27.76H109.35V21h21.43c2,0,3.33.36,4.17,1.12s1.28,2.15,1.28,4.33V55c0,2-.39,3.38-1.23,4.22S132.82,60.4,130.78,60.4Zm-17.93-3.5h17.93a4.76,4.76,0,0,0,1.73-.21,4.52,4.52,0,0,0,.22-1.74V26.44a5.69,5.69,0,0,0-.19-1.77,6.25,6.25,0,0,0-1.76-.18H112.85ZM132.5,24.6Z"/><path d="M251.3,91.66H224.83L220.06,77H192.41l-4.89,14.68h-26L191,14H221.7Zm-23.93-3.5h18.86L219.29,17.45H193.43L166.6,88.16H185l4.89-14.68H222.6Zm-5.89-18.22H191L206.3,23.72Zm-25.65-3.5h20.81L206.29,34.89Z"/><path d="M353,91.66H328.73V43.92L313.57,75.55H296.69L281.77,44.21V91.66H257.63V14h27.44l20,43,20.47-43H353Zm-20.76-3.5h17.26V17.45H327.77L305.05,65.14,282.84,17.45H261.13V88.16h17.14V36.46l3.33-.75,17.3,36.34h12.47L328.9,35.46l3.33.76Z"/><path d="M424.92,91.66H399.47V30.3h25.45ZM403,88.16h18.45V33.8H403ZM425.4,25.09H399.11V8.35H425.4Zm-22.79-3.5H421.9V11.85H402.61Z"/><path d="M505.21,91.66H479.75V42.78a5.38,5.38,0,0,0-.19-1.76,5.68,5.68,0,0,0-1.75-.19H466.12c-2.36,0-2.55.89-2.55,2V91.66H438.12V30.3h25.45v1.06a11,11,0,0,1,5.05-1.06H494c7.21,0,11.18,4,11.18,11.17Zm-22-3.5h18.46V41.47c0-5.31-2.37-7.67-7.68-7.67H468.62c-3.61,0-4.71,1.41-5.22,2.47l-3.33-.77V33.8H441.62V88.16h18.45V42.78c0-3.46,2.21-5.45,6.05-5.45h11.69c2.18,0,3.52.4,4.33,1.29s1.11,2.15,1.11,4.16Z"/><path d="M542.9,91.66H517.45V30.3H542.9ZM521,88.16H539.4V33.8H521Zm22.43-63.07H517.09V8.35h26.29Zm-22.79-3.5h19.29V11.85H520.59Z"/><path d="M596.71,91.66H570.62c-7.21,0-11.17-4-11.17-11.18V40.83h-9.31V30.3h9.31V17.05H584.9V30.3h11.93V40.83H584.9v38.1a5.54,5.54,0,0,0,.19,1.76,5.53,5.53,0,0,0,1.76.19h9.86ZM553.64,37.33H563V80.48c0,5.31,2.36,7.68,7.67,7.68h22.59V84.38h-6.36c-2.05,0-3.33-.35-4.17-1.12s-1.28-2.15-1.28-4.33V37.33h11.93V33.8H581.4V20.55H563V33.8h-9.31Zm31.48,43.44Z"/></svg>